inDegrees=no
num_controls=7
num_derivatives=13
num_iterations=115
num_multipliers=7
num_parameters=0
num_slacks=7
num_states=26
objective=0.446471
objective_accelerations=0.061448
objective_balance=0.002891
objective_effort=0.021558
objective_height=0.354006
objective_ligament=0.006568
solver_duration=1591.226983
status=Solve_Succeeded
success=true
DataType=double
version=3
OpenSimVersion=4.5
endheader
time	/jointset/ground_pelvis/pelvis_tilt/value	/jointset/ground_pelvis/pelvis_tx/value	/jointset/ground_pelvis/pelvis_ty/value	/jointset/hip_l/hip_flexion_l/value	/jointset/hip_l/hip_adduction_l/value	/jointset/hip_l/hip_rotation_l/value	/jointset/back/lumbar_extension/value	/jointset/patellofemoral_l/patellar_flexion_l/value	/jointset/knee_l/knee_flexion_l/value	/jointset/knee_l/knee_adduction_l/value	/jointset/knee_l/knee_rotation_l/value	/jointset/ankle_l/ankle_angle_l/value	/jointset/subtalar_l/subtalar_angle_l/value	/jointset/ground_pelvis/pelvis_tilt/speed	/jointset/ground_pelvis/pelvis_tx/speed	/jointset/ground_pelvis/pelvis_ty/speed	/jointset/hip_l/hip_flexion_l/speed	/jointset/hip_l/hip_adduction_l/speed	/jointset/hip_l/hip_rotation_l/speed	/jointset/back/lumbar_extension/speed	/jointset/patellofemoral_l/patellar_flexion_l/speed	/jointset/knee_l/knee_flexion_l/speed	/jointset/knee_l/knee_adduction_l/speed	/jointset/knee_l/knee_rotation_l/speed	/jointset/ankle_l/ankle_angle_l/speed	/jointset/subtalar_l/subtalar_angle_l/speed	/forceset/tau_hip_flexion_l	/forceset/tau_hip_adduction_l	/forceset/tau_hip_rotation_l	/forceset/tau_knee_flexion_l	/forceset/tau_ankle_angle_l	/forceset/tau_subtalar_angle_l	/forceset/tau_lumbar_extension	lambda_cid13_p0	lambda_cid13_p1	lambda_cid13_p2	lambda_cid13_p3	lambda_cid13_p4	lambda_cid13_p5	lambda_cid14_p0	/jointset/ground_pelvis/pelvis_tilt/accel	/jointset/ground_pelvis/pelvis_tx/accel	/jointset/ground_pelvis/pelvis_ty/accel	/jointset/hip_l/hip_flexion_l/accel	/jointset/hip_l/hip_adduction_l/accel	/jointset/hip_l/hip_rotation_l/accel	/jointset/back/lumbar_extension/accel	/jointset/patellofemoral_l/patellar_flexion_l/accel	/jointset/knee_l/knee_flexion_l/accel	/jointset/knee_l/knee_adduction_l/accel	/jointset/knee_l/knee_rotation_l/accel	/jointset/ankle_l/ankle_angle_l/accel	/jointset/subtalar_l/subtalar_angle_l/accel	gamma_cid13_p0	gamma_cid13_p1	gamma_cid13_p2	gamma_cid13_p3	gamma_cid13_p4	gamma_cid13_p5	gamma_cid14_p0
0.5	-0.2782164787816506	-0.01678707935265003	0.7584020145164949	1.058158880648344	-0.4065598088496248	-0.2859730285213932	-0.2532177882651824	0.8769608963221899	0.8769608963221107	0.01796939450657193	-0.1728786929998126	0.1867950068303176	0.05206481065315167	-0.5949383028255654	-0.160183434221511	-0.5687598945149998	2.359373665018746	-0.1872624095520346	0.5084085270768356	-0.1247379460936768	2.200332693390734	2.20033269339075	0.5280525143013219	-0.03218948282282479	0.6544333427642463	0.1740962178575089	-0.1390627918681999	0.02234517726517096	-0.01996594257137965	-0.2440748119641367	0.04782969562216799	0.05082192962595185	0.1474768410568531	-15.37431137981203	-20.50895529090498	4.223271359364214	-6.411286121309542	-516.8605195530964	-67.46837372244531	-21.95649903028865	0.746773361993989	0.6024572462733107	-0.6105584379489978	-1.340672985476607	0.2683903545966559	-0.4872531242685512	1.078174455707861	-1.275993675332739	-1.275993675332749	-0.2767781725001832	0.4900796825413717	-0.7369422310479096	-0.01234997444538588	-3.886588321117498e-07	-3.897448437636278e-06	-2.137863840829397e-06	-9.081762097599111e-07	-1.017279278645228e-07	-1.107047060993319e-06	-4.82998453825286e-07
0.51	-0.284127009992551	-0.01835857201376304	0.7526852164846732	1.081681259626083	-0.4084199185517571	-0.2809194230329856	-0.2544121993508543	0.8988970092967884	0.8988970092967337	0.02323715669421207	-0.1731815600159947	0.1933011732450966	0.05380322606674831	-0.5870764677970304	-0.154096252490517	-0.5744709429731205	2.344776844161133	-0.1847572645071485	0.5022453594563157	-0.1141758128969011	2.186592474386206	2.18659247438617	0.525446028392371	-0.02841711100696015	0.6467020447816947	0.1735248040774482	-0.1435534090739539	0.02381477608650226	-0.02097934719139934	-0.2478730638802665	0.04672265323664825	0.05186138553408994	0.1510802290820245	-15.87630548983667	-20.72320209680459	4.08690026319577	-6.341017063720135	-520.811896470657	-67.26955164101082	-20.89073766308781	0.8196695384278239	0.6144974991009998	-0.5320864317252711	-1.567912683706613	0.2425735566764138	-0.6911482263946395	1.040501473239084	-1.467554856859796	-1.467554856867428	-0.2613409880135228	0.3154728647251577	-0.8061455920256847	-0.0879886462970698	-3.854849319975382e-07	-3.691475552346409e-06	-1.931761518679676e-06	-8.617909316123716e-07	-1.275406632072124e-07	-1.112143763400808e-06	-4.625039670634089e-07
0.52	-0.2899561666601372	-0.01986866308504841	0.746915166291874	1.105047925185686	-0.4102547774079927	-0.2759295091498733	-0.255501935360243	0.9206868163125714	0.9206868163125427	0.02847710258518327	-0.1734477719272959	0.1997270422780166	0.05553423702924218	-0.5786633941627114	-0.1479031162559845	-0.5794103267105045	2.328230981391401	-0.1822122403725888	0.4956702060177589	-0.1038029308370582	2.171071501627802	2.171071501627716	0.5224892549665806	-0.0248584618464492	0.6383738663924671	0.1726153276369613	-0.1480440262797072	0.0252843749078311	-0.02199275181140015	-0.2516713157963949	0.0456156108511279	0.05290084144222425	0.1546836171071973	-16.37926766505696	-20.94295489462485	3.957887688533609	-6.298592133525859	-524.7907785689441	-67.09652083543607	-19.83486905972087	0.8570210831508064	0.62364814698101	-0.4562254938016523	-1.7304813679003	0.2763661725313396	-0.5696502878759354	1.04032422832128	-1.632144426107752	-1.632144426107716	-0.3468356758680539	0.4473351514706307	-0.85631831238311	-0.07996250653062753	-3.735198328663712e-07	-3.433982372682893e-06	-1.711228989265419e-06	-8.051608179050274e-07	-1.456709919857786e-07	-1.090202054503939e-06	-4.349581373507963e-07
0.53	-0.2956986058027673	-0.02131634690031363	0.7410996286216786	1.128239618432783	-0.4120640372619491	-0.2710064638191926	-0.2564889559502572	0.9423126775963767	0.9423126775963568	0.03368524602607639	-0.1736788211898311	0.2060667535544245	0.05725440912931746	-0.5697416240429976	-0.1416197113206939	-0.5835626828336846	2.309791274035265	-0.1796405173263053	0.4888794048131128	-0.09364747295695709	2.153814721250429	2.153814721250396	0.5190791982857295	-0.02138866957716808	0.629481189604283	0.1713569537196283	-0.1523431819640134	0.02663808844469768	-0.02310606937316878	-0.2557426779357295	0.04481689973545337	0.05375100184444547	0.1581130401681702	-16.79921028352414	-21.08650654306239	3.80698948390195	-6.254133736548536	-528.8581762711856	-66.78291473814812	-18.79192613896632	0.9222229621273914	0.6326219051158861	-0.3745930361420117	-1.948123287601051	0.2479834583397382	-0.742931796816369	0.9962136991876418	-1.815265828023973	-1.81526582801609	-0.3476903425681545	0.2909150067635318	-0.9190284463485178	-0.1573744484510549	-3.657730316832359e-07	-3.209261116793284e-06	-1.499919992032521e-06	-7.551356702827041e-07	-1.615872806155231e-07	-1.063874589522112e-06	-4.133309913841552e-07
0.54	-0.3013493336470513	-0.0227008096185634	0.7352465969173383	1.151237433032694	-0.4138474982679105	-0.2661531538525702	-0.2573758105352037	0.9637574068795124	0.963757406879505	0.03885736896449445	-0.1738763497812535	0.2123148808460877	0.0589602775673961	-0.5603211344934536	-0.1352588968528942	-0.5869091335394941	2.2894552519539	-0.1770524707735054	0.4817231332061696	-0.08376972982353069	2.134845101494178	2.134845101494198	0.5152851544698971	-0.01815432762361937	0.6200570694436004	0.1697545952376384	-0.1566423376483174	0.02799180198156077	-0.02421938693490676	-0.2598140400750618	0.04401818861977775	0.05460116224666106	0.1615424632291463	-17.22006481324147	-21.23516757511987	3.662922587588553	-6.241810945675022	-532.9512085588107	-66.4947754743263	-17.76429380987204	0.9567649691168533	0.6391300534828388	-0.2950444103275409	-2.109744312946047	0.279630873834624	-0.6427443683353505	0.9847812789863364	-1.974712301883541	-1.974712301883528	-0.4236331028642965	0.4002450883241445	-0.962606986882821	-0.1487594194620132	-3.626932835489871e-07	-3.020798159547146e-06	-1.298815753808786e-06	-7.124181447118932e-07	-1.750539929104009e-07	-1.032694798659054e-06	-3.982521763705041e-07
0.55	-0.3069034698148635	-0.02402138743680205	0.729364154597602	1.174022649997393	-0.415605065085805	-0.2613725186567955	-0.2581654006529201	0.9850040442834728	0.9850040442834943	0.04398920890572379	-0.1740423170020195	0.2184661326375106	0.06064827198919875	-0.5504280608875337	-0.1288535541977104	-0.5894415354519436	2.267285568905356	-0.1744632442911435	0.4743461460132475	-0.07421292655347125	2.11420660795619	2.114206607956138	0.511022347377717	-0.01508476209846321	0.6101079482660869	0.1677782227877619	-0.1608984895059607	0.02924930558557143	-0.02543930047300218	-0.2637391169933047	0.04285412932049016	0.05540436306015842	0.1648813741898434	-17.76492014934936	-21.34497001687998	3.516371769375934	-6.035002946171806	-537.0474584450822	-66.1696673534687	-16.75374712252992	1.017318621933518	0.6415654375702328	-0.2117053182254935	-2.315928403985354	0.2486357180412846	-0.7940685112070955	0.9314349259629527	-2.149705575518031	-2.149705575528843	-0.4371629996725396	0.2532389354368669	-1.024049298034564	-0.2313741532584262	-3.539803748521142e-07	-2.792272814677373e-06	-1.079193726768351e-06	-6.60432865119216e-07	-1.840844910762554e-07	-9.744089717025145e-07	-3.786364522616148e-07
0.5600000000000001	-0.3123563272334959	-0.02527784601528207	0.7234605148114369	1.196577100510972	-0.4173367262023554	-0.2566674318562377	-0.2588613617229461	1.0060360392129	1.006036039212952	0.04907650907858369	-0.1741790032373696	0.2245152962941882	0.06231464308740101	-0.5400653846574535	-0.1224350489011668	-0.5911486268252635	2.243301961729741	-0.1718713305046079	0.466613454162867	-0.06504392028552269	2.091916606587739	2.091916606587614	0.5063772007944292	-0.01229813054028604	0.5996394424946154	0.1654299305175673	-0.1651546413636004	0.03050680918957834	-0.02665921401107267	-0.2676641939115454	0.04169007002120131	0.0562075638736497	0.1682202851505452	-18.31095856730543	-21.45995314538531	3.376799575525337	-5.860881245229232	-541.1715282209179	-65.87279544815591	-15.76146260480648	1.050685493948986	0.6417625817547921	-0.1299823025016657	-2.472529138360353	0.28016833466935	-0.7138852998270233	0.9072218785641694	-2.305013867976074	-2.305013867976166	-0.5001010010858281	0.3436582949283449	-1.066483905674447	-0.223143383525623	-3.385076734800928e-07	-2.515672604659239e-06	-8.373503531478766e-07	-5.973262807002997e-07	-1.877915322872822e-07	-8.835959014337972e-07	-3.535764372384399e-07
0.5700000000000001	-0.3177034078000303	-0.02647008746557324	0.7175439512828214	1.218882888139866	-0.419042444728859	-0.2520404798162993	-0.2594675828618455	1.026837065321262	1.026837065321236	0.05411492786047817	-0.1742885838699975	0.2304573308504482	0.06395572516961075	-0.5292813578671191	-0.1160131126124691	-0.5920225083291303	2.217557564736623	-0.1692768946386105	0.4587207116311697	-0.0562782154589254	2.068022007964624	2.068022007964518	0.5012436294121462	-0.009670103740924878	0.5886955522915323	0.1627236426658306	-0.1691500244225812	0.03150050681550209	-0.02793572788654058	-0.2718962160628285	0.04088819299450983	0.05690094988420277	0.171335898120776	-18.7483974984002	-21.54080028314972	3.22555168258281	-5.724061016843603	-545.3037053832068	-65.5241502456485	-14.78806981326439	1.102686977587731	0.6423161081911317	-0.04489346671709975	-2.670072853110485	0.2486954214641963	-0.835627701206895	0.8495585900315096	-2.471606047266232	-2.471606047263299	-0.5298070473599067	0.2144204008553247	-1.119278212737497	-0.3033338421000966	-3.256707417514431e-07	-2.268759085287675e-06	-6.156885185935058e-07	-5.405771065566458e-07	-1.894538174690431e-07	-7.920031786880606e-07	-3.326547156866943e-07
0.58	-0.3229405629574592	-0.02759812816182469	0.71162288846069	1.240922296224165	-0.4207222960549232	-0.24749418699595	-0.2599884841914138	1.047391160805835	1.047391160805732	0.0591000465604368	-0.1743734751289488	0.2362877391776551	0.06556795190208263	-0.5180803028363016	-0.1095948980932212	-0.5920484855285106	2.190026052810585	-0.166697890416643	0.4504816102448411	-0.04797995841936755	2.042530481830028	2.042530481829943	0.4957171844074484	-0.007360255804950442	0.5773141966839599	0.1596588605699984	-0.173145407481559	0.0324942044414285	-0.02921224176200806	-0.2761282382141114	0.04008631596781901	0.0575943358947598	0.1744515110910088	-19.18798510122243	-21.62643295607087	3.080961574234649	-5.619859063560265	-549.4768600205635	-65.20524353684314	-13.83369825089815	1.134091142045627	0.641018227864859	0.03959855839563781	-2.829952124944251	0.2770820058633874	-0.7831570707532738	0.8137323211562885	-2.624399370272166	-2.624399370272167	-0.5786757255687934	0.2800225222510001	-1.153976986572275	-0.2948422323447171	-3.162664402560217e-07	-2.060507302572106e-06	-4.203096186368523e-07	-4.92107350445892e-07	-1.884531645661785e-07	-6.993950945769046e-07	-3.171223995861123e-07
0.59	-0.3280637534330369	-0.02866212975038479	0.7057057869817682	1.262677776139206	-0.4223764581951623	-0.2430311366218175	-0.2604288457322106	1.067682572406255	1.067682572406177	0.06402736945937876	-0.1744363933155383	0.2420021580089806	0.06714765652357015	-0.5064941180234951	-0.1032176418149735	-0.5912308306165345	2.160790192313594	-0.1641424233928845	0.4420855457530623	-0.04018909490098994	2.015497346053647	2.015497346053674	0.4896701377275089	-0.005280981083921475	0.565496157891096	0.1562106559879385	-0.1770632653057687	0.03362458584551657	-0.0305703777097644	-0.2800713922230249	0.038911022648127	0.05808623129796073	0.1774371255883597	-19.75334999618856	-21.59325354965345	2.906828261962127	-5.278991956405574	-553.5083293448535	-64.65792787825433	-12.89871490981711	1.180441875004069	0.6341532561918265	0.1239583301109517	-3.012354134424609	0.2437911423185536	-0.8744898046482464	0.7472515930362134	-2.780882906826975	-2.78088290680992	-0.6296175947920606	0.1631757978643273	-1.206852966482805	-0.3801710332917588	-3.104772874453515e-07	-1.826999253276939e-06	-1.675895826810095e-07	-4.357067179113884e-07	-1.870286200996321e-07	-5.645286060810471e-07	-3.05116800249932e-07
